# xmcd
#
# Track frame offsets: 
# 150
# 28412
# 67563
# 93003
# 111723
# 125877
# 154423
# 171673
# 192113
# 224088
# 241375
# 271855
# 292828
# 311785
#
# Disc length: 4687 seconds
# Submitted via: tkcNetwork 1.0
# Revision: 0
# Processed by: cddbd v1.5.2PL0 Copyright (c) Steve Scherf et al.
#
DISCID=d9124d0e
DTITLE=Various Artist - While My Guitar Gently Weeps [CD1)
DYEAR=2001
DGENRE=Slow Rock
TTITLE0=Dire Straits - Lover Over Gold
TTITLE1=Prince - Purple Rain
TTITLE2=Carlos Santana and John Lee Hooker - The Healer
TTITLE3=Snowy White - Bird Of Paradise
TTITLE4=Eric Clapton - After Midnight
TTITLE5=The Steve Miller Band - Circle Of Love
TTITLE6=Joe Satriani - Love Thing
TTITLE7=Scorpions - Wind Of Change
TTITLE8=The Allman Brothers Band - Jessica
TTITLE9=Bonnie Raitt - Nick Of Time
TTITLE10=Venice - Baby's Calling Me
TTITLE11=John Hiatt - Perfectly Good Guitar
TTITLE12=Little River Band - It's A Long Way There
TTITLE13=Stevie Ray Vaughn - Riviera Paradise
EXTD=
EXTT0=
EXTT1=
EXTT2=
EXTT3=
EXTT4=
EXTT5=
EXTT6=
EXTT7=
EXTT8=
EXTT9=
EXTT10=
EXTT11=
EXTT12=
EXTT13=
PLAYORDER=
